<svg xmlns="http://www.w3.org/2000/svg" width="1.9in" height="1.9in" viewBox="0 0 136.48 136.48"><circle cx="68.24" cy="68.24" r="68.24" fill="#cf6060"/><path d="M90.38,117.81c1.75-.83,3.54-1.56,5.36-2.21,3.82-1,10.19-5.48,14.6-11.19,3.53-4.58,5-8.53,7.91-9.9.36-.17,1.88-.88,2.51,0s-.08,3.32-.48,4.53c-.46,1.39-2.12,5.9-8,12.62a48.44,48.44,0,0,1-10,9.23c-6.41,4.21-14.29,6.16-15.18,2.28v-.06a5.71,5.71,0,0,1,.42-3.48C88.13,118.7,89.06,118.34,90.38,117.81Z" fill="#fff"/><path d="M102.88,87.45a11.31,11.31,0,0,0-8.09-5.4H81.93l-.5-.5a9.16,9.16,0,0,0,1.84-.88,9.07,9.07,0,0,0,1.53-1.21l4.71,1.34.65-2.3L86.4,77.41a10.07,10.07,0,0,0,1-2.22,1.07,1.07,0,0,0,.06-.35V72.37l2.87-1.23-1-2.2-1.92.83v-.93a1.15,1.15,0,0,0-.18-.62l-3.6-6A1.2,1.2,0,0,0,81.79,62l-3.25,3.25h-.7V50.14l1.69-1.7h1.54l3.3,2.2A1.19,1.19,0,0,0,86,50.31l2.4-3.6a1.19,1.19,0,0,0,0-1.33l-4.8-7.2a1.17,1.17,0,0,0-1-.54H79a1.21,1.21,0,0,0-1.08.67L75.9,42.44H63l-2.07-4.13a1.2,1.2,0,0,0-1.07-.67H55a1.2,1.2,0,0,0-1,.51l-6,8.4a1.2,1.2,0,0,0,.13,1.54l2.4,2.4a1.2,1.2,0,0,0,1.52.15l3.29-2.2h2.74l.5.5V62c-3.17,1.15-11.82,5.1-15.52,14.83a25.29,25.29,0,0,0-.9,14.62l-2.78-1.67V85.64a3.6,3.6,0,0,0-5.76-2.88,3.62,3.62,0,0,0-1.44,2.88V94a1.22,1.22,0,0,0,.57,1l9.59,6a1.31,1.31,0,0,0,.64.18H97a1.23,1.23,0,0,0,.54-.13l4.8-2.4a1.15,1.15,0,0,0,.51-.49C103,98,105.88,92.7,102.88,87.45ZM70.64,89.23l-7.11,0v2.4l7.11,0v7.21h-2.4a4.8,4.8,0,0,0-4.8-4.8H61a10.81,10.81,0,0,0-10.8-10.8H49v2.4h1.2a8.41,8.41,0,0,1,8.4,8.4v1.2a1.2,1.2,0,0,0,1.2,1.2h3.6a2.4,2.4,0,0,1,2.4,2.4H43.38l-8.74-5.47V85.64a1.21,1.21,0,0,1,.48-1,1.2,1.2,0,0,1,1.92,1v4.8a1.21,1.21,0,0,0,.58,1l6,3.6a1.21,1.21,0,0,0,1.75-1.45,23.22,23.22,0,0,1,0-16c.18-.47.38-.9.58-1.34h0C50,67.55,58.52,64.51,60.2,64A1.2,1.2,0,0,0,61,62.84V48.44a1.21,1.21,0,0,0-.35-.84l-1.2-1.2a1.2,1.2,0,0,0-.85-.36H55a1.16,1.16,0,0,0-.67.21L51.59,48.1l-1-1,5-7.07H59.1l2.07,4.14a1.18,1.18,0,0,0,1.07.66h14.4a1.19,1.19,0,0,0,1.07-.66L79.78,40H82l4,6L84.7,48l-2.6-1.73a1.13,1.13,0,0,0-.66-.21H79a1.18,1.18,0,0,0-.85.36l-2.4,2.39a1.2,1.2,0,0,0-.35.85v15.6H72.33L69.09,62a1.24,1.24,0,0,0-1-.34,1.22,1.22,0,0,0-.88.57l-3.6,6a1.23,1.23,0,0,0-.17.62v.93l-1.93-.83-.94,2.21,2.87,1.22v2.47a1.41,1.41,0,0,0,.05.35,10.48,10.48,0,0,0,1.43,2.91l-4.3,1.62L61.46,82l5.23-2a8.35,8.35,0,0,0,.92.66,9.53,9.53,0,0,0,3,1.21v7.36Zm30.3,7.52-4.19,2.09H85.9L85,96.24v-3l1.53-2.3a1,1,0,0,1,.86-.46,1,1,0,0,1,.87.49,1,1,0,0,1,0,1l-.79,1.57a1.2,1.2,0,0,0,.23,1.39l1.2,1.2a1.21,1.21,0,0,0,.85.35h6V94h-5.5l-.23-.24.4-.8a3.43,3.43,0,0,0-5.92-3.43l-1.74,2.6a1.22,1.22,0,0,0-.2.67v3.6a1.21,1.21,0,0,0,.06.38l.67,2H79v-8.4h-2.4v8.4H73v-18A1.21,1.21,0,0,0,72,79.64,6.94,6.94,0,0,1,69.48,79l1.58-.59-.84-2.24-3,1.1a7.89,7.89,0,0,1-1.42-2.56V73.4L69,74.74l1-2.2-4.07-1.75V69.17l2.64-4.39L71,67.29a1.17,1.17,0,0,0,.85.35H79a1.15,1.15,0,0,0,.84-.35l2.52-2.51L85,69.17v1.62L81,72.54l1,2.2L85,73.4v1.26a8.09,8.09,0,0,1-1,2.06l-2.23-.63-.66,2.3.86.25a7.16,7.16,0,0,1-3,1,1.2,1.2,0,0,0-.74,2l2.4,2.4a1.21,1.21,0,0,0,.85.35H94.55a9,9,0,0,1,6.24,4.19A9.13,9.13,0,0,1,100.94,96.75Z" fill="#fff"/><path d="M103.13,45.07C101,39.07,94,29.91,83.47,29.29c-7.12-.42-12.53,5.13-15.13,7.79l-.15.15L68,37c-2.55-2.65-7.9-8.18-15-7.75C42.53,29.88,35.51,39,33.35,45c-2.88,8-.09,18.29,7.67,28.14l1.89-1.48c-7.24-9.19-9.9-18.61-7.3-25.84,1.94-5.41,8.22-13.65,17.53-14.2,6-.34,10.81,4.63,13.12,7,.44.46.79.83,1.06,1.06a1.2,1.2,0,0,0,.51.27L68,40A1.24,1.24,0,0,0,69,39.77c.25-.23.6-.58,1-1,2.35-2.4,7.24-7.4,13.27-7.06,9.32.55,15.59,8.79,17.54,14.2,2.95,8.22-.89,19.18-10.29,29.33l1.76,1.64C102.36,66,106.39,54.15,103.13,45.07Z" fill="#fff"/><rect x="63.44" y="49.64" width="2.4" height="2.4" fill="#fff"/><rect x="70.64" y="49.64" width="2.4" height="2.4" fill="#fff"/><rect x="65.84" y="54.44" width="4.8" height="2.4" fill="#fff"/><rect x="70.64" y="70.04" width="2.4" height="2.4" fill="#fff"/><rect x="77.84" y="70.04" width="2.4" height="2.4" fill="#fff"/><rect x="74.24" y="73.64" width="2.4" height="2.4" fill="#fff"/></svg>