<svg xmlns="http://www.w3.org/2000/svg" width="1.9in" height="1.9in" viewBox="0 0 136.48 136.48"><circle cx="68.24" cy="68.24" r="68.24" fill="#7dc6eb"/><path d="M90.38,117.81c1.75-.83,3.54-1.56,5.36-2.21,3.82-1,10.19-5.48,14.6-11.19,3.53-4.58,5-8.53,7.91-9.9.36-.17,1.88-.88,2.51,0s-.08,3.32-.48,4.53c-.46,1.39-2.12,5.9-8,12.62a48.44,48.44,0,0,1-10,9.23c-6.41,4.21-14.29,6.16-15.18,2.28v-.06a5.71,5.71,0,0,1,.42-3.48C88.13,118.7,89.06,118.34,90.38,117.81Z" fill="#fff"/><path d="M100.68,90.14a5.91,5.91,0,0,0,.6-10.53,5.9,5.9,0,0,0-3.55-6.87,5.49,5.49,0,0,0-.57-.2v-1.3a1.17,1.17,0,0,0,.55-.31l5-5a1.18,1.18,0,0,0,0-1.67h0L68.63,30.17a1.59,1.59,0,0,0-2,0L32.59,64.26a1.17,1.17,0,0,0,0,1.67h0l5,5a1.08,1.08,0,0,0,.55.31V99.46a1.18,1.18,0,0,0,1.18,1.19h62.47A1.18,1.18,0,0,0,103,99.46a1.33,1.33,0,0,0,0-.28ZM98.8,76.82A3.6,3.6,0,0,1,99,78.87a5.86,5.86,0,0,0-3,.43l.93,2.17a3.53,3.53,0,0,1,2.5-.11h0a3.54,3.54,0,1,1-4.36,4.75,1.19,1.19,0,0,0-1.55-.62h0l-7.78,3.34H76.63a3.54,3.54,0,1,1,3.12-6.35,3.49,3.49,0,0,1,1.69,1.78,1.18,1.18,0,0,0,1.55.62h0l8.68-3.72a1.18,1.18,0,0,0,.62-1.55h0a3.54,3.54,0,0,1,6.5-2.83v0Zm-4.69,12H91.74l1.75-.75a4.94,4.94,0,0,0,.62.75Zm-43,2.36H45.22V86.48h5.91Zm0-7.08H45.22V79.4h5.91Zm-5.91,9.44h5.91v4.72H45.22ZM51.29,77H45.22V72.32h7.5A16.53,16.53,0,0,0,51.29,77ZM54.1,70H45.22V65.24H59.15A16.5,16.5,0,0,0,54.1,70Zm-6.78-7.08L52,58.15H83.26L88,62.88ZM60.57,51.07H74.73v4.72H60.57ZM77.09,52l3.8,3.8h-3.8Zm-15.6-3.28,6.16-6.16,6.16,6.16Zm-3.28,7.08H54.4L58.21,52ZM94.8,69.7v2.67a5.8,5.8,0,0,0-2.36.83V67.34Zm-5,9.72-5.59,2.39V79.4h5.59Zm.32-14.18V70H81.22a16.73,16.73,0,0,0-5-4.72Zm0,7.08V76l0,0a5.87,5.87,0,0,0-.3,1H84a16.2,16.2,0,0,0-1.42-4.72Zm-55-7.23L67.65,32.53l32.56,32.56-3.34,3.34-.05-.05h0L68.48,40a1.18,1.18,0,0,0-1.67,0L38.49,68.37h0l0,.05ZM40.5,98.28V69.7l2.36-2.37v31Zm13-18.88a14.16,14.16,0,1,1,28.32,0V81a5.9,5.9,0,0,0-2.36-1.11v-.5a11.8,11.8,0,1,0-23.6,0V98.28H53.49Zm4.72,0a9.44,9.44,0,1,1,18.88,0v.47a5.89,5.89,0,0,0-4.7,6.89,6,6,0,0,0,.84,2.11,1.19,1.19,0,0,0-.91.87l-2.14,8.54h-12ZM72.62,98.28l1.77-7.08H98.51l1.77,7.08Z" fill="#fff"/><path d="M62.93,52.25h2.36v2.36H62.93Z" fill="#fff"/><path d="M67.65,52.25h4.72v2.36H67.65Z" fill="#fff"/></svg>