<svg xmlns="http://www.w3.org/2000/svg" width="1.9in" height="1.9in" viewBox="0 0 136.48 136.48"><circle cx="68.24" cy="68.24" r="68.24" fill="#efbed0"/><path d="M90.38,117.81c1.75-.83,3.54-1.56,5.36-2.21,3.82-1,10.19-5.48,14.6-11.19,3.53-4.58,5-8.53,7.91-9.9.36-.17,1.88-.88,2.51,0s-.08,3.32-.48,4.53c-.46,1.39-2.12,5.9-8,12.62a48.44,48.44,0,0,1-10,9.23c-6.41,4.21-14.29,6.16-15.18,2.28v-.06a5.71,5.71,0,0,1,.42-3.48C88.13,118.7,89.06,118.34,90.38,117.81Z" fill="#fff"/><path d="M101.84,75.05V42.44a1.17,1.17,0,0,0-.54-1L85.61,31a5.42,5.42,0,0,0-6.25-1.24l-2.44,1.11-.11-.15a1.19,1.19,0,0,0-1.66-.33l-4,2.69a1.19,1.19,0,0,0-.33,1.66l2.09,3.1a12,12,0,0,0-2.62,2.74l2,1.36a9.23,9.23,0,0,1,2-2.1L77.12,44l-2.18-.78a11.86,11.86,0,0,0-.7,4h2.4a9.33,9.33,0,0,1,.54-3.13l.37.56a1.21,1.21,0,0,0,1.67.33l4-2.69a1.19,1.19,0,0,0,.32-1.66h0l-.1-.16,1.35-1.27,9.87,6.28V74.84h-7.2a4.8,4.8,0,0,0-4.8-4.8v-7.2a14.61,14.61,0,0,0-.2-2.38,9.91,9.91,0,0,0,3.78-7.14c0-.21,0-.43,0-.64v-3a1.2,1.2,0,0,0-1.2-1.2h-7.2a1.24,1.24,0,0,0-.72.24l-2,1.51a14.38,14.38,0,0,0-13.74,0l-2-1.51a1.24,1.24,0,0,0-.72-.24h-7.2a1.2,1.2,0,0,0-1.2,1.2v3c0,.21,0,.43,0,.64A9.91,9.91,0,0,0,54,60.46a14.61,14.61,0,0,0-.2,2.38V70a4.8,4.8,0,0,0-4.8,4.8H35.84a3.6,3.6,0,0,0-1.2,7V88a13.21,13.21,0,0,0,13.2,13.2h40.8A13.21,13.21,0,0,0,101.84,88v-6.2a3.6,3.6,0,0,0,0-6.79Zm-23-32.71-5.36-8,2-1.34,5.36,8Zm4.85-5.43-1.66,1.57-3.78-5.61,2.07-.95a3.05,3.05,0,0,1,3.37,5Zm2.64.48a5.43,5.43,0,0,0,.71-2.55l12.37,8.25V74.84H97v-30a1.19,1.19,0,0,0-.56-1ZM82.64,72.44a2.41,2.41,0,0,1,2.4,2.4,1.2,1.2,0,0,1-1.2,1.2h-2.4a1.2,1.2,0,0,1-1.2-1.2A2.4,2.4,0,0,1,82.64,72.44Zm-14.4-2.29a6.52,6.52,0,0,0,4.8,0v2.29a6,6,0,0,0,5.64-4,5.89,5.89,0,0,0,1.56-.84v3a4.8,4.8,0,0,0-2.4,4.15H58.64a4.8,4.8,0,0,0-2.4-4.15v-3a5.74,5.74,0,0,0,1.56.84,6,6,0,0,0,5.64,4V70.15A6.52,6.52,0,0,0,68.24,70.15ZM67,64v-1.2h2.4V64A1.2,1.2,0,0,1,67,64Zm14.71-6.18a14.54,14.54,0,0,0-1.81-3.42h3.69a7.64,7.64,0,0,1-1.88,3.42Zm-29.11-7h5.6l2.32,1.74a1.21,1.21,0,0,0,1.36.06,12,12,0,0,1,12.64,0,1.21,1.21,0,0,0,1.36-.06l2.32-1.74h5.6V52H78.93a1.17,1.17,0,0,0-.86.37l-.82.84a1.2,1.2,0,0,0,0,1.63,12,12,0,0,1,3,8A3.59,3.59,0,0,1,79,65.52V64h-2.4v2.4A3.6,3.6,0,0,1,73.33,70l.25-.11L72.5,67.77a4.21,4.21,0,0,1-3.06.26v-.59a3.6,3.6,0,0,0,2.4-3.4v-2.4a1.2,1.2,0,0,0-1.2-1.2h-4.8a1.2,1.2,0,0,0-1.2,1.2V64a3.6,3.6,0,0,0,2.4,3.4V68A4.16,4.16,0,0,1,64,67.77L62.9,69.92l.25.11a3.6,3.6,0,0,1-3.31-3.59V64h-2.4v1.48a3.59,3.59,0,0,1-1.2-2.68,11.93,11.93,0,0,1,3-8,1.2,1.2,0,0,0,0-1.63l-.82-.84a1.19,1.19,0,0,0-.86-.37H52.64Zm.21,3.6h3.69a14.54,14.54,0,0,0-1.81,3.42A7.64,7.64,0,0,1,52.85,54.44Zm1,18a2.41,2.41,0,0,1,2.4,2.4A1.2,1.2,0,0,1,55,76h-2.4a1.2,1.2,0,0,1-1.2-1.2A2.4,2.4,0,0,1,53.84,72.44ZM99.44,88a10.82,10.82,0,0,1-10.8,10.8H47.84A10.82,10.82,0,0,1,37,88v-1.2h6a1.2,1.2,0,0,0,0-2.4H37V82h62.4Zm2-8.75a1.19,1.19,0,0,1-.85.35H35.84a1.2,1.2,0,0,1,0-2.4H50a3.57,3.57,0,0,0,2.68,1.2H55a3.57,3.57,0,0,0,2.68-1.2h21a3.57,3.57,0,0,0,2.68,1.2h2.4a3.57,3.57,0,0,0,2.68-1.2h14.12a1.2,1.2,0,0,1,1.2,1.2,1.23,1.23,0,0,1-.35.85Z" fill="#fff"/><path d="M61.86,58.12l3.6-1.2.76,2.28-3.6,1.2Z" fill="#fff"/><path d="M70.26,59.16,71,56.88l3.6,1.2-.76,2.28Z" fill="#fff"/><path d="M62.24,47.24h2.4a9.36,9.36,0,0,1,.56-3.19l-2.26-.81a11.86,11.86,0,0,0-.7,4Z" fill="#fff"/><path d="M68,37.13a11.76,11.76,0,0,0-3.66,3.43l2,1.36a9.37,9.37,0,0,1,2.91-2.73l.86-.52-1.24-2.05Z" fill="#fff"/><path d="M68.24,47.24h2.4a9.36,9.36,0,0,1,.56-3.19l-2.26-.81a11.86,11.86,0,0,0-.7,4Z" fill="#fff"/><path d="M35.84,66.44a6,6,0,1,0,6-6A6,6,0,0,0,35.84,66.44Zm6-3.6a3.6,3.6,0,1,1-3.6,3.6A3.6,3.6,0,0,1,41.84,62.84Z" fill="#fff"/><path d="M37,49.64a4.8,4.8,0,1,0,4.8,4.8A4.8,4.8,0,0,0,37,49.64Zm0,7.2a2.4,2.4,0,1,1,2.4-2.4A2.39,2.39,0,0,1,37,56.84Z" fill="#fff"/><path d="M85,65.24a3.6,3.6,0,1,0,3.6-3.6A3.6,3.6,0,0,0,85,65.24Zm3.6-1.2a1.2,1.2,0,1,1-1.2,1.2A1.2,1.2,0,0,1,88.64,64Z" fill="#fff"/><path d="M47.84,86.84H49a1.2,1.2,0,0,0,0-2.4h-1.2a1.2,1.2,0,0,0,0,2.4Z" fill="#fff"/><path d="M68.24,89.24a1.2,1.2,0,0,0,1.2-1.2v-1.2a1.2,1.2,0,0,0-2.4,0V88A1.2,1.2,0,0,0,68.24,89.24Z" fill="#fff"/><path d="M64.64,91.64a1.2,1.2,0,0,0,1.2-1.2v-1.2a1.2,1.2,0,0,0-2.4,0v1.2A1.2,1.2,0,0,0,64.64,91.64Z" fill="#fff"/><path d="M71.84,91.64a1.2,1.2,0,0,0,1.2-1.2v-1.2a1.2,1.2,0,0,0-2.4,0v1.2A1.2,1.2,0,0,0,71.84,91.64Z" fill="#fff"/><path d="M64.64,94a1.2,1.2,0,0,0,1.2,1.2h4.8a1.2,1.2,0,1,0,0-2.4h-1.2v-1.2a1.2,1.2,0,0,0-2.4,0v1.2h-1.2A1.2,1.2,0,0,0,64.64,94Z" fill="#fff"/><path d="M87.44,96.44a9.62,9.62,0,0,0,9.6-9.6,1.2,1.2,0,0,0-2.4,0,7.21,7.21,0,0,1-7.2,7.2,1.2,1.2,0,1,0,0,2.4Z" fill="#fff"/><path d="M81.44,96.44h1.2a1.2,1.2,0,1,0,0-2.4h-1.2a1.2,1.2,0,1,0,0,2.4Z" fill="#fff"/></svg>