<svg id="Layer_1" data-name="Layer 1" xmlns="http://www.w3.org/2000/svg" viewBox="0 0 776.99 149.83"><defs><style>.cls-1{fill:#22293d;}.cls-2{fill:#fff;}.cls-3{fill:#7dc6eb;}.cls-4{fill:#cf6060;}.cls-5{fill:#efbed0;}</style></defs><path class="cls-1" d="M312,100.86h13.47c7.52,0,10.85,4.18,10.85,9.9s-3.38,9.94-10.85,9.94h-10V132H312Zm13.52,16.7c5.37,0,7.32-3,7.32-6.8s-1.95-6.76-7.32-6.76H315.43v13.56Z"/><path class="cls-1" d="M338.7,120.23c0-7.14,5.24-12.38,12.66-12.38s12.57,5.24,12.57,12.38v1H342c.42,4.91,4.09,8.38,9.37,8.38,3.71,0,6.57-1.52,8.09-4.24h3.48c-1.81,4.33-6.1,7.19-11.57,7.19C343.94,132.6,338.7,127.37,338.7,120.23Zm21.89-1.81c-.76-4.76-4.47-7.62-9.23-7.62s-8.57,3-9.28,7.62Z"/><path class="cls-1" d="M367.64,123.32V100.14h3.19v8.33h13.85v2.9H370.83v11.95c0,4.28,2.38,6.33,6,6.33s6.05-2,6.05-6.33v-.52H386v.52c0,6.19-3.71,9.28-9.14,9.28S367.64,129.51,367.64,123.32Z"/><path class="cls-1" d="M402,123.22h3.38c.14,4,3,6.24,8,6.24s8-2.43,8-6.24c0-4.09-3.95-4.8-8.19-5.42-5-.71-10.47-1.67-10.47-8.28,0-5.52,4.29-9.28,10.71-9.28s10.47,3.57,10.66,9h-3.28c-.19-3.57-2.9-5.85-7.38-5.85s-7.38,2.38-7.38,6c0,4,3.91,4.67,8.14,5.33,5.05.81,10.52,1.72,10.52,8.38,0,5.81-4.47,9.47-11.33,9.47S402.1,129,402,123.22Z"/><path class="cls-1" d="M428.76,120.37c0-7.57,5.28-12.52,12.56-12.52,7.47,0,12.71,5.24,12.71,12.47a11.86,11.86,0,0,1-12.19,12.28c-4.47,0-8.13-2.09-9.89-5.66V142h-3.19Zm22-.14a9.42,9.42,0,1,0-9.42,9.42A9,9,0,0,0,450.79,120.23Z"/><path class="cls-1" d="M456.79,120.37c0-7.33,5.24-12.52,12.66-12.52s12.61,5.09,12.61,12.52V132h-2.95v-5.8c-1.66,4.18-5.57,6.42-10.13,6.42A11.81,11.81,0,0,1,456.79,120.37Zm22.08-.14a9.42,9.42,0,1,0-9.42,9.42A9,9,0,0,0,478.87,120.23Z"/><path class="cls-1" d="M498.58,123.32a7.75,7.75,0,0,1,5.86-7.85v-.1a6.85,6.85,0,0,1-4.71-6.9c0-5,3.95-8.23,9.8-8.23,5.57,0,9.33,3,9.76,8h-3.15c-.33-2.85-2.47-5.09-6.56-5.09-4.38,0-6.67,2.57-6.67,5.57,0,3.43,2.43,5.38,6.52,5.38h13v2.71h-6.23a6.91,6.91,0,0,1,4.24,6.66c0,5.57-4.48,9.14-11,9.14S498.58,129,498.58,123.32Zm18.71-.19c0-3.86-2.86-6.33-7.38-6.33h-.81c-4.52,0-7.33,2.38-7.33,6.33,0,3.71,2.57,6.57,7.76,6.57S517.29,126.84,517.29,123.13Z"/><path class="cls-1" d="M539.85,100.86h3.43v13.75h20.18V100.86h3.42V132h-3.42V117.75H543.28V132h-3.43Z"/><path class="cls-1" d="M571.46,120.23c0-7.14,5.23-12.38,12.66-12.38s12.66,5.24,12.66,12.38-5.24,12.37-12.66,12.37S571.46,127.37,571.46,120.23Zm22.08,0a9.43,9.43,0,1,0-9.42,9.42A9,9,0,0,0,593.54,120.23Z"/><path class="cls-1" d="M600.49,123.32V100.14h3.19v8.33h13.85v2.9H603.68v11.95c0,4.28,2.38,6.33,6,6.33s6-2,6-6.33v-.52h3.09v.52c0,6.19-3.71,9.28-9.14,9.28S600.49,129.51,600.49,123.32Z"/><path class="cls-1" d="M621.91,120.23c0-7.14,5.24-12.38,12.66-12.38s12.56,5.24,12.56,12.38v1H625.19c.43,4.91,4.1,8.38,9.38,8.38,3.71,0,6.57-1.52,8.09-4.24h3.47c-1.8,4.33-6.09,7.19-11.56,7.19C627.15,132.6,621.91,127.37,621.91,120.23Zm21.89-1.81c-.76-4.76-4.47-7.62-9.23-7.62s-8.57,3-9.28,7.62Z"/><path class="cls-1" d="M651.75,98.19h3.19V132h-3.19Z"/><path class="cls-1" d="M224.15,83.28c-9,0-17.37-2.79-23.87-9.66-5.94-6.31-8.45-14.21-8.45-23.4v-.75c0-9,2.41-17,8.45-23.4,6.41-6.78,14.86-9.66,23.87-9.66h1.95c17.09,0,24.52,10.21,24.52,18.2,0,6-3.44,9.38-8.64,9.38-5.38,0-7.15-2.13-9-5.48-2-3.62-4.73-4.92-8.63-4.92-3.16,0-6,1-7.9,3.53s-2.41,6.59-2.41,11v3.53c0,4.55.74,8.54,2.41,11,1.95,2.79,4.64,3.53,7.8,3.53,4,0,6.69-1.12,8.64-4.92,1.67-3.26,3.72-5.48,9-5.48s8.64,3.62,8.64,9.38c0,8.17-7.34,18.2-24.43,18.2Z"/><path class="cls-1" d="M275,41.67a16.09,16.09,0,0,1,12.63-6.22c7.15,0,15.42,4.83,15.42,17.27v21c0,6.41-3.81,9.57-8.64,9.57H292c-4.82,0-8.63-3.16-8.63-9.57V57.18c0-2.88-1.12-4.92-3.44-4.92S275,54.58,275,60V73.71c0,6.41-3.81,9.57-8.64,9.57h-2.41c-4.83,0-8.64-3.16-8.64-9.57V26c0-6.4,3.81-9.56,8.64-9.56h2.41c4.83,0,8.64,3.16,8.64,9.56Z"/><path class="cls-1" d="M353.07,67.12c4.27,0,7.34,1.49,7.34,7.43v1.3c0,4.83-1.49,7.43-8.36,7.43h-5.67c-5.29,0-10-1.21-12.07-5.48A20.14,20.14,0,0,1,320,83.28c-6.13,0-13.28-2.69-13.28-11.52,0-10.58,9.93-13.28,17.74-15.32,5.1-1.39,9.28-2.51,9.28-5.39,0-1.76-1.2-3.34-4.27-3.34-6.69,0-7.06,7.52-15.05,7.52-4.36,0-6.78-2.51-6.78-6.31,0-5.67,6.6-13.47,23.32-13.47,15.79,0,22.1,5.2,22.1,18.48Zm-18.39-7.24c-4.36,3.71-9.94,3.34-9.94,7.15a2.46,2.46,0,0,0,2.6,2.69C330.13,69.72,334.68,65.91,334.68,59.88Z"/><path class="cls-1" d="M374.25,35.45c4.46,0,8.08,2.69,8.54,8.17,3.44-4.46,8.74-8.17,15.14-8.17,7.16,0,11.71,4.92,11.71,10.4,0,4.18-2.6,8.36-8.18,8.36-6.78,0-6.5-3.16-11.51-3.16-3.72,0-7.06,2.51-7.06,9.38V73.71c0,6.41-3.81,9.57-8.64,9.57h-2.42c-4.83,0-8.63-3.16-8.63-9.57V45c0-6.4,3.8-9.56,8.63-9.56Z"/><path class="cls-1" d="M424.59,35.45c4.83,0,7.34,3.16,7.53,6.31a17.86,17.86,0,0,1,13.74-6.31c4.74,0,10,1.86,13.29,6.22a17.26,17.26,0,0,1,13.28-6.22c7.52,0,15.79,4.83,15.79,17.27v21c0,6.41-3.81,9.57-8.64,9.57h-2.42c-4.83,0-8.63-3.16-8.63-9.57V57.18c0-2.88-1.12-4.92-3.44-4.92s-4.92,2.32-4.92,7.71V73.71c0,6.41-3.81,9.57-8.64,9.57h-2.42c-4.83,0-8.63-3.16-8.63-9.57V57.18c0-2.88-1.12-4.92-3.44-4.92s-4.92,2.32-4.92,7.71V73.71c0,6.41-3.81,9.57-8.64,9.57h-2.42c-4.83,0-8.63-3.16-8.63-9.57V45c0-6.4,3.8-9.56,8.63-9.56Z"/><path class="cls-1" d="M511.44,59c.09,5.66,2,9,5.76,9,6.32,0,7.06-6.23,14.49-6.23a6.45,6.45,0,0,1,6.87,6.6c0,9.56-10.49,15-21.64,15-14.12,0-25-9.94-25-24s10.77-23.87,25.17-23.87c12.81,0,21.92,8,21.92,17.27,0,4.18-1.86,6.23-6.51,6.23Zm9.2-5.67c-.28-3.06-1.77-5.57-4.37-5.57s-4.18,2.51-4.46,5.57Z"/><path class="cls-1" d="M582.5,16.41c4.83,0,8.63,3.16,8.63,9.56V73.71c0,6.41-3.8,9.57-8.63,9.57h-2.42a7.91,7.91,0,0,1-7.71-4.83,15.94,15.94,0,0,1-11.61,4.83c-11.14,0-18.48-9.84-18.48-23.87s7.34-24,18.48-24a16,16,0,0,1,10.68,4V26c0-6.4,3.81-9.56,8.64-9.56Zm-11.06,43c0-5.11-1.67-7.61-4.27-7.61-2.88,0-4.55,2.5-4.55,7.61s1.67,7.71,4.55,7.71C569.77,67.12,571.44,64.61,571.44,59.41Z"/><path class="cls-2" d="M227.91,74.66a22.62,22.62,0,0,1,2.6,0,14.82,14.82,0,0,0,7.89-2.23c2.19-1.32,3.41-2.73,4.86-2.81.18,0,.93,0,1.05.44s-.54,1.38-.9,1.82a16.33,16.33,0,0,1-5.3,3.94A21.25,21.25,0,0,1,232.48,78c-3.35.67-7,.16-6.75-1.61v0a2.5,2.5,0,0,1,.72-1.38A2.06,2.06,0,0,1,227.91,74.66Z"/><path class="cls-1" d="M656.11,66.1c5.11,0,8.54,3.53,8.54,8.64s-3.43,8.54-8.54,8.54H625.18c-7.52,0-10.68-3.34-10.68-12.44v-42c0-9.1,3.16-12.44,10.68-12.44h2c7.52,0,10.68,3.34,10.68,12.44V66.1Z"/><path class="cls-1" d="M667.91,45c0-6.4,3.8-9.56,8.63-9.56H679c4.83,0,8.64,3.16,8.64,9.56v28.7c0,6.41-3.81,9.57-8.64,9.57h-2.42c-4.83,0-8.63-3.16-8.63-9.57Zm1.48-20.61a8.37,8.37,0,0,1,16.72,0,8.36,8.36,0,0,1-16.72,0Z"/><path class="cls-1" d="M720.48,24.67c0,4.09-1.12,6.23-3.16,6.78-1.3.38-2.32.75-2.32,2.79v1.21h1.11c3.62,0,4.37,2.69,4.37,7v1.4c0,4.27-.75,7-4.37,7H715V73.71c0,6.41-3.81,9.57-8.64,9.57h-2.42c-4.83,0-8.64-3.16-8.64-9.57V50.77h-.55c-3.63,0-4.37-2.69-4.37-7v-1.4c0-4.27.74-7,4.37-7h.55V30.9c0-9.76,5.58-14.49,13.47-14.49h3.44c6.13,0,8.27,3.43,8.27,7.52Z"/><path class="cls-1" d="M740.91,59c.09,5.66,2,9,5.76,9,6.32,0,7.06-6.23,14.49-6.23a6.45,6.45,0,0,1,6.87,6.6c0,9.56-10.49,15-21.64,15-14.12,0-25-9.94-25-24s10.77-23.87,25.17-23.87c12.81,0,21.92,8,21.92,17.27,0,4.18-1.86,6.23-6.51,6.23Zm9.2-5.67c-.28-3.06-1.77-5.57-4.37-5.57s-4.18,2.51-4.46,5.57Z"/><path class="cls-2" d="M658.31,74.31a23.83,23.83,0,0,0-2.27,1c-1.41.8-4.81,1.52-8.18,1.44-2.7-.07-4.61-.56-5.91-.07-.17.06-.84.31-.65.69s1.3.71,1.87.87a23.68,23.68,0,0,0,7,.67,28.49,28.49,0,0,0,6.2-.63c3.32-.79,6.16-2.48,4.9-3.58l0,0a3.35,3.35,0,0,0-1.46-.65A2.48,2.48,0,0,0,658.31,74.31Z"/><circle class="cls-3" cx="57.82" cy="58.38" r="51.21"/><path class="cls-2" d="M73,95.72a39,39,0,0,1,4-1.66c2.86-.78,7.64-4.12,11-8.4,2.65-3.44,3.72-6.4,5.93-7.43.28-.13,1.42-.66,1.89,0s-.06,2.5-.36,3.4-1.59,4.43-6,9.47A36.31,36.31,0,0,1,82,98.06c-4.81,3.16-10.72,4.62-11.39,1.71v0a4.23,4.23,0,0,1,.32-2.61C71.33,96.39,72,96.11,73,95.72Z"/><circle class="cls-4" cx="132.08" cy="58.07" r="28.04" transform="translate(-7.6 21.91) rotate(-9.22)"/><path class="cls-2" d="M142.85,76.2a22.3,22.3,0,0,1,2.2-.91,13.85,13.85,0,0,0,6-4.6c1.45-1.88,2-3.51,3.25-4.07.15-.07.78-.36,1,0s0,1.36-.2,1.86a15.59,15.59,0,0,1-3.27,5.18,19.42,19.42,0,0,1-4.09,3.8c-2.64,1.73-5.87,2.53-6.24.94v0a2.34,2.34,0,0,1,.18-1.43C141.93,76.56,142.31,76.41,142.85,76.2Z"/><path id="Path_213" data-name="Path 213" class="cls-2" d="M50.39,58.8c2-1.24,8.86-2.08,11-.94,17,9.27,18.4,26.85,15,28.61-9.47,5-14.06-4.28-18.18-4.11s-18.08,8.36-23.61-.91C30.74,75,48.39,60,50.39,58.8Z"/><ellipse id="Ellipse_11" data-name="Ellipse 11" class="cls-2" cx="49.75" cy="38.08" rx="13.51" ry="7.97" transform="translate(6.27 83.19) rotate(-83.48)"/><ellipse id="Ellipse_12" data-name="Ellipse 12" class="cls-2" cx="68.54" cy="39.98" rx="13.51" ry="7.97" transform="translate(16.45 99.84) rotate(-79.23)"/><ellipse id="Ellipse_13" data-name="Ellipse 13" class="cls-2" cx="79.58" cy="56.83" rx="10.58" ry="6.25" transform="translate(-10.65 94.52) rotate(-58.2)"/><ellipse id="Ellipse_14" data-name="Ellipse 14" class="cls-2" cx="36.11" cy="52.48" rx="5.91" ry="10.02" transform="matrix(0.98, -0.21, 0.21, 0.98, -10.2, 8.74)"/><circle class="cls-5" cx="103.12" cy="106.97" r="36.4"/><path class="cls-2" d="M114.93,133.42a29.8,29.8,0,0,1,2.86-1.18c2-.55,5.44-2.92,7.79-6,1.88-2.44,2.64-4.55,4.22-5.28.19-.09,1-.47,1.34,0s0,1.77-.26,2.42a20.31,20.31,0,0,1-4.24,6.73,25.6,25.6,0,0,1-5.31,4.93c-3.43,2.24-7.63,3.28-8.1,1.21v0a3,3,0,0,1,.23-1.85C113.73,133.9,114.23,133.7,114.93,133.42Z"/><path id="Path_213-2" data-name="Path 213" class="cls-2" d="M97.63,106.07c1.39-.5,5.72-.11,6.85.86,9.22,7.93,7.78,18.93,5.48,19.56-6.47,1.81-8.08-4.48-10.63-4.91s-12.21,2.76-14.39-3.67C83.42,113.45,96.24,106.56,97.63,106.07Z"/><ellipse id="Ellipse_11-2" data-name="Ellipse 11" class="cls-2" cx="99.96" cy="93.26" rx="8.49" ry="5.01" transform="matrix(0.32, -0.95, 0.95, 0.32, -20.3, 158.26)"/><ellipse id="Ellipse_12-2" data-name="Ellipse 12" class="cls-2" cx="111.26" cy="96.9" rx="8.49" ry="5.01" transform="translate(-21.24 161.79) rotate(-67.15)"/><ellipse id="Ellipse_13-2" data-name="Ellipse 13" class="cls-2" cx="115.83" cy="108.7" rx="6.65" ry="3.92" transform="translate(-42.81 116.84) rotate(-46.12)"/><ellipse id="Ellipse_14-2" data-name="Ellipse 14" class="cls-2" cx="89.69" cy="100.31" rx="3.71" ry="6.29"/><path id="Path_213-3" data-name="Path 213" class="cls-2" d="M128.3,58.77c.84-.81,4.07-1.93,5.2-1.6,9.2,2.7,11.73,11.07,10.29,12.27-4.06,3.4-7.26-.6-9.23-.08s-7.88,6-11.53,2C120.48,68.69,127.46,59.58,128.3,58.77Z"/><ellipse id="Ellipse_11-3" data-name="Ellipse 11" class="cls-2" cx="125.81" cy="48.81" rx="3.95" ry="6.7" transform="translate(-4.25 12.81) rotate(-5.73)"/><ellipse id="Ellipse_12-3" data-name="Ellipse 12" class="cls-2" cx="135.11" cy="47.75" rx="3.95" ry="6.7" transform="translate(-1.19 3.5) rotate(-1.48)"/><ellipse id="Ellipse_13-3" data-name="Ellipse 13" class="cls-2" cx="142.23" cy="54.75" rx="5.24" ry="3.09" transform="translate(43.04 170.45) rotate(-70.45)"/><ellipse id="Ellipse_14-3" data-name="Ellipse 14" class="cls-2" cx="120.72" cy="57.21" rx="2.93" ry="4.96" transform="translate(-12.85 54.88) rotate(-24.36)"/></svg>