<svg id="Layer_1" data-name="Layer 1" xmlns="http://www.w3.org/2000/svg" viewBox="0 0 786.2 497.43"><defs><style>.cls-1{fill:#fff;}.cls-2{fill:#22293d;}.cls-3{fill:#7dc6eb;}.cls-4{fill:#cf6060;}.cls-5{fill:#efbed0;}</style></defs><path class="cls-1" d="M169,433.65h17.9c10,0,14.43,5.57,14.43,13.16S196.79,460,186.85,460H173.51v15H169Zm18,22.21c7.15,0,9.74-3.92,9.74-9.05s-2.59-9-9.74-9H173.51v18Z"/><path class="cls-1" d="M204.44,459.4c0-9.49,7-16.45,16.83-16.45s16.7,7,16.7,16.45v1.39H208.81c.57,6.52,5.44,11.14,12.46,11.14,4.93,0,8.73-2,10.75-5.63h4.62c-2.4,5.75-8.1,9.55-15.37,9.55C211.4,475.85,204.44,468.89,204.44,459.4Zm29.1-2.4c-1-6.33-5.94-10.12-12.27-10.12-6.52,0-11.39,4-12.34,10.12Z"/><path class="cls-1" d="M242.9,463.51v-30.8h4.24v11.07h18.41v3.86H247.14v15.87c0,5.7,3.17,8.42,8,8.42s8-2.66,8-8.42v-.69h4.11v.69c0,8.23-4.93,12.34-12.14,12.34S242.9,471.74,242.9,463.51Z"/><path class="cls-1" d="M288.51,463.39H293c.18,5.25,4,8.29,10.62,8.29s10.63-3.23,10.63-8.29c0-5.44-5.25-6.39-10.88-7.21-6.71-.95-13.92-2.22-13.92-11,0-7.34,5.7-12.34,14.24-12.34,8.35,0,13.91,4.75,14.17,12H313.5c-.25-4.75-3.86-7.78-9.8-7.78s-9.81,3.16-9.81,8c0,5.32,5.19,6.2,10.82,7.09,6.7,1.07,14,2.27,14,11.13,0,7.72-5.95,12.59-15.06,12.59S288.7,471.11,288.51,463.39Z"/><path class="cls-1" d="M324.13,459.59c0-10.06,7-16.64,16.7-16.64,9.93,0,16.89,7,16.89,16.58s-7,16.32-16.19,16.32c-5.95,0-10.82-2.78-13.16-7.53v20.06h-4.24Zm29.29-.19c0-7.21-5.06-12.52-12.53-12.52s-12.52,5.31-12.52,12.52,5,12.53,12.52,12.53S353.42,466.61,353.42,459.4Z"/><path class="cls-1" d="M361.39,459.59c0-9.74,7-16.64,16.83-16.64S395,449.72,395,459.59V475h-3.92v-7.72c-2.21,5.57-7.4,8.54-13.47,8.54C368.79,475.85,361.39,469.59,361.39,459.59Zm29.35-.19c0-7.21-5.06-12.52-12.52-12.52s-12.53,5.31-12.53,12.52,5.06,12.53,12.53,12.53S390.74,466.61,390.74,459.4Z"/><path class="cls-1" d="M416.93,463.51c0-5.31,2.91-8.92,7.78-10.43V453a9.13,9.13,0,0,1-6.26-9.17c0-6.65,5.25-10.95,13-10.95,7.4,0,12.4,3.92,13,10.63h-4.17c-.45-3.8-3.29-6.77-8.73-6.77-5.82,0-8.86,3.42-8.86,7.4,0,4.56,3.23,7.15,8.67,7.15h17.33v3.61H440.4A9.18,9.18,0,0,1,446,463.7c0,7.41-5.94,12.15-14.55,12.15S416.93,471,416.93,463.51Zm24.86-.25c0-5.12-3.79-8.41-9.8-8.41h-1.08c-6,0-9.74,3.16-9.74,8.41,0,4.94,3.42,8.73,10.31,8.73S441.79,468.2,441.79,463.26Z"/><path class="cls-1" d="M471.78,433.65h4.55v18.29h26.83V433.65h4.55V475h-4.55V456.11H476.33V475h-4.55Z"/><path class="cls-1" d="M513.78,459.4c0-9.49,7-16.45,16.83-16.45s16.83,7,16.83,16.45-7,16.45-16.83,16.45S513.78,468.89,513.78,459.4Zm29.36,0c0-7.21-5.06-12.52-12.53-12.52s-12.52,5.31-12.52,12.52,5.06,12.53,12.52,12.53S543.14,466.61,543.14,459.4Z"/><path class="cls-1" d="M552.37,463.51v-30.8h4.24v11.07H575v3.86H556.61v15.87c0,5.7,3.16,8.42,8,8.42s8-2.66,8-8.42v-.69h4.11v.69c0,8.23-4.93,12.34-12.14,12.34S552.37,471.74,552.37,463.51Z"/><path class="cls-1" d="M580.84,459.4c0-9.49,7-16.45,16.83-16.45s16.7,7,16.7,16.45v1.39H585.2c.57,6.52,5.45,11.14,12.47,11.14,4.93,0,8.73-2,10.75-5.63H613c-2.4,5.75-8.1,9.55-15.37,9.55C587.8,475.85,580.84,468.89,580.84,459.4Zm29.1-2.4c-1-6.33-6-10.12-12.27-10.12-6.52,0-11.39,4-12.34,10.12Z"/><path class="cls-1" d="M620.5,430.11h4.24V475H620.5Z"/><path class="cls-1" d="M52.19,403.66c-12,0-23.08-3.71-31.72-12.84-7.9-8.39-11.24-18.89-11.24-31.11v-1c0-12,3.21-22.59,11.24-31.1,8.52-9,19.75-12.84,31.72-12.84h2.6c22.71,0,32.58,13.58,32.58,24.19,0,7.9-4.56,12.47-11.47,12.47-7.17,0-9.51-2.84-12-7.28-2.72-4.82-6.3-6.55-11.48-6.55-4.2,0-8,1.36-10.49,4.7s-3.21,8.76-3.21,14.56v4.69c0,6.05,1,11.36,3.21,14.57,2.59,3.7,6.17,4.69,10.37,4.69,5.3,0,8.88-1.48,11.48-6.54C66,370,68.73,367,75.77,367s11.48,4.82,11.48,12.47c0,10.87-9.75,24.2-32.46,24.2Z"/><path class="cls-1" d="M119.72,348.35a21.41,21.41,0,0,1,16.79-8.27c9.5,0,20.49,6.42,20.49,23v27.9c0,8.52-5.06,12.72-11.48,12.72h-3.21c-6.42,0-11.48-4.2-11.48-12.72V369c0-3.83-1.48-6.54-4.57-6.54s-6.54,3.08-6.54,10.24v18.27c0,8.52-5.06,12.72-11.48,12.72H105c-6.42,0-11.48-4.2-11.48-12.72V327.49c0-8.51,5.06-12.71,11.48-12.71h3.21c6.42,0,11.48,4.2,11.48,12.71Z"/><path class="cls-1" d="M223.54,382.18c5.68,0,9.75,2,9.75,9.87v1.73c0,6.42-2,9.88-11.11,9.88h-7.53c-7,0-13.33-1.61-16.05-7.29-3.08,3.21-9.75,7.29-19,7.29-8.15,0-17.65-3.58-17.65-15.31,0-14.07,13.21-17.65,23.58-20.37,6.79-1.85,12.34-3.33,12.34-7.16,0-2.34-1.6-4.44-5.68-4.44-8.89,0-9.38,10-20,10-5.81,0-9-3.34-9-8.4,0-7.53,8.77-17.9,31-17.9,21,0,29.38,6.92,29.38,24.57Zm-24.44-9.63c-5.81,4.94-13.21,4.44-13.21,9.5a3.27,3.27,0,0,0,3.45,3.58C193.05,385.63,199.1,380.57,199.1,372.55Z"/><path class="cls-1" d="M251.68,340.08c5.93,0,10.74,3.58,11.36,10.87,4.57-5.93,11.6-10.87,20.12-10.87,9.51,0,15.56,6.55,15.56,13.83,0,5.56-3.46,11.11-10.87,11.11-9,0-8.64-4.2-15.3-4.2-4.94,0-9.39,3.34-9.39,12.47v17.65c0,8.52-5.06,12.72-11.48,12.72h-3.21c-6.41,0-11.48-4.2-11.48-12.72V352.8c0-8.52,5.07-12.72,11.48-12.72Z"/><path class="cls-1" d="M318.59,340.08c6.42,0,9.75,4.2,10,8.4a23.75,23.75,0,0,1,18.27-8.4c6.3,0,13.33,2.47,17.65,8.27a23,23,0,0,1,17.66-8.27c10,0,21,6.42,21,23v27.9c0,8.52-5.06,12.72-11.48,12.72h-3.21c-6.42,0-11.48-4.2-11.48-12.72V369c0-3.83-1.48-6.54-4.57-6.54s-6.54,3.08-6.54,10.24v18.27c0,8.52-5.06,12.72-11.48,12.72h-3.21c-6.42,0-11.48-4.2-11.48-12.72V369c0-3.83-1.48-6.54-4.57-6.54s-6.54,3.08-6.54,10.24v18.27c0,8.52-5.06,12.72-11.48,12.72H313.9c-6.42,0-11.48-4.2-11.48-12.72V352.8c0-8.52,5.06-12.72,11.48-12.72Z"/><path class="cls-1" d="M434,371.32c.12,7.52,2.71,12,7.65,12,8.39,0,9.38-8.27,19.26-8.27,6.29,0,9.13,4.57,9.13,8.76,0,12.72-13.95,19.88-28.76,19.88-18.76,0-33.21-13.21-33.21-31.85s14.32-31.73,33.46-31.73c17,0,29.13,10.62,29.13,23,0,5.56-2.47,8.28-8.64,8.28Zm12.22-7.53c-.37-4.08-2.35-7.41-5.8-7.41s-5.56,3.33-5.93,7.41Z"/><path class="cls-1" d="M528.45,314.78c6.42,0,11.48,4.2,11.48,12.71v63.45c0,8.52-5.06,12.72-11.48,12.72h-3.21c-4.56,0-8.39-2.1-10.24-6.42a21.26,21.26,0,0,1-15.43,6.42c-14.82,0-24.57-13.09-24.57-31.73s9.75-31.85,24.57-31.85a21.23,21.23,0,0,1,14.19,5.31v-17.9c0-8.51,5.06-12.71,11.48-12.71Zm-14.69,57.15c0-6.79-2.22-10.12-5.67-10.12-3.83,0-6,3.33-6,10.12s2.22,10.25,6,10.25C511.54,382.18,513.76,378.84,513.76,371.93Z"/><path class="cls-2" d="M57.19,392.2a30.84,30.84,0,0,1,3.46,0c2.35.27,6.83-.77,10.48-3,2.92-1.76,4.53-3.63,6.46-3.73.24,0,1.24-.07,1.4.58s-.72,1.83-1.19,2.41-2.4,2.81-7,5.24a27.57,27.57,0,0,1-7.48,2.91c-4.46.9-9.27.22-9-2.14v0a3.22,3.22,0,0,1,1-1.84A2.73,2.73,0,0,1,57.19,392.2Z"/><path class="cls-1" d="M626.29,380.82c6.79,0,11.36,4.69,11.36,11.48s-4.57,11.36-11.36,11.36H585.18c-10,0-14.2-4.45-14.2-16.54v-55.8c0-12.1,4.2-16.54,14.2-16.54h2.59c10,0,14.2,4.44,14.2,16.54v49.5Z"/><path class="cls-1" d="M642,352.8c0-8.52,5.06-12.72,11.48-12.72h3.21c6.42,0,11.48,4.2,11.48,12.72v38.14c0,8.52-5.06,12.72-11.48,12.72h-3.21c-6.42,0-11.48-4.2-11.48-12.72Zm2-27.41a10.89,10.89,0,0,1,11.11-10.61c6.05,0,11.11,4.81,11.11,10.61a11.11,11.11,0,0,1-22.22,0Z"/><path class="cls-1" d="M711.84,325.76c0,5.44-1.49,8.28-4.2,9-1.73.49-3.09,1-3.09,3.7v1.6H706c4.82,0,5.81,3.58,5.81,9.26v1.85c0,5.68-1,9.26-5.81,9.26h-1.48v30.49c0,8.52-5.06,12.72-11.48,12.72h-3.21c-6.42,0-11.48-4.2-11.48-12.72V360.45h-.74c-4.81,0-5.8-3.58-5.8-9.26v-1.85c0-5.68,1-9.26,5.8-9.26h.74v-6c0-13,7.41-19.26,17.9-19.26h4.57c8.15,0,11,4.57,11,10Z"/><path class="cls-1" d="M739,371.32c.12,7.52,2.71,12,7.65,12,8.39,0,9.38-8.27,19.26-8.27,6.29,0,9.13,4.57,9.13,8.76,0,12.72-13.95,19.88-28.76,19.88-18.76,0-33.21-13.21-33.21-31.85s14.32-31.73,33.46-31.73c17,0,29.13,10.62,29.13,23,0,5.56-2.47,8.28-8.64,8.28Zm12.22-7.53c-.37-4.08-2.35-7.41-5.8-7.41s-5.56,3.33-5.93,7.41Z"/><path class="cls-2" d="M629.21,391.73c-1,.43-2.14.78-3,1.27-1.88,1.05-6.4,2-10.88,1.91-3.59-.09-6.12-.74-7.85-.09-.22.08-1.11.41-.87.91s1.73.95,2.49,1.16a31.9,31.9,0,0,0,9.27.89,38,38,0,0,0,8.24-.84c4.41-1.05,8.18-3.29,6.51-4.75l0,0a4.35,4.35,0,0,0-1.94-.87A3.44,3.44,0,0,0,629.21,391.73Z"/><circle class="cls-3" cx="331.05" cy="115.45" r="96.71"/><path class="cls-1" d="M359.76,186c2.53-1,5.08-2.44,7.59-3.13,5.41-1.48,14.44-7.78,20.69-15.87,5-6.49,7-12.09,11.21-14,.52-.24,2.67-1.24,3.56.06s-.11,4.71-.68,6.41c-.66,2-3,8.38-11.27,17.89-3.32,3.82-7.77,8.94-14.11,13.09-9.09,6-20.26,8.73-21.52,3.23a.45.45,0,0,0,0-.08,8.05,8.05,0,0,1,.61-4.93C356.56,187.24,357.89,186.73,359.76,186Z"/><circle class="cls-4" cx="471.31" cy="114.87" r="52.97" transform="matrix(0.99, -0.16, 0.16, 0.99, -12.31, 76.98)"/><path class="cls-1" d="M491.65,149.11a40.63,40.63,0,0,1,4.16-1.72c3-.81,7.9-4.25,11.32-8.69,2.75-3.55,3.86-6.62,6.14-7.68.29-.13,1.47-.68,2,0s-.05,2.58-.37,3.52-1.64,4.58-6.17,9.79a37.28,37.28,0,0,1-7.73,7.17c-5,3.27-11.09,4.78-11.78,1.77v-.05a4.38,4.38,0,0,1,.33-2.7C489.9,149.8,490.62,149.52,491.65,149.11Z"/><path id="Path_213" data-name="Path 213" class="cls-1" d="M317,116.24c3.78-2.33,16.73-3.92,20.67-1.77,32.1,17.51,34.76,50.72,28.42,54-17.88,9.39-26.56-8.09-34.34-7.76s-34.15,15.79-44.6-1.72C279.89,146.86,313.23,118.57,317,116.24Z"/><ellipse id="Ellipse_11" data-name="Ellipse 11" class="cls-1" cx="315.8" cy="77.11" rx="25.52" ry="15.06" transform="translate(203.35 382.13) rotate(-83.48)"/><ellipse id="Ellipse_12" data-name="Ellipse 12" class="cls-1" cx="351.29" cy="80.71" rx="25.52" ry="15.06" transform="translate(206.35 410.72) rotate(-79.23)"/><ellipse id="Ellipse_13" data-name="Ellipse 13" class="cls-1" cx="372.15" cy="112.53" rx="19.99" ry="11.8" transform="translate(80.4 369.51) rotate(-58.2)"/><ellipse id="Ellipse_14" data-name="Ellipse 14" class="cls-1" cx="290.04" cy="104.31" rx="11.16" ry="18.92" transform="translate(-15.43 63.15) rotate(-12.11)"/><circle class="cls-5" cx="416.59" cy="207.24" r="68.76"/><path class="cls-1" d="M438.91,257.2a55.54,55.54,0,0,1,5.4-2.23c3.84-1.05,10.27-5.53,14.71-11.28,3.56-4.62,5-8.6,8-10,.36-.17,1.9-.88,2.53,0s-.08,3.35-.48,4.57c-.47,1.4-2.14,6-8,12.71a48.05,48.05,0,0,1-10,9.31c-6.46,4.24-14.4,6.21-15.3,2.3v-.06a5.76,5.76,0,0,1,.43-3.51C436.64,258.09,437.58,257.73,438.91,257.2Z"/><path id="Path_213-2" data-name="Path 213" class="cls-1" d="M406.23,205.53c2.64-.94,10.8-.21,12.94,1.63,17.42,15,14.69,35.74,10.36,37-12.23,3.42-15.26-8.47-20.08-9.29s-23.07,5.21-27.19-6.92C379.39,219.47,403.6,206.47,406.23,205.53Z"/><ellipse id="Ellipse_11-2" data-name="Ellipse 11" class="cls-1" cx="410.64" cy="181.33" rx="16.04" ry="9.47" transform="translate(107.82 512.7) rotate(-71.4)"/><ellipse id="Ellipse_12-2" data-name="Ellipse 12" class="cls-1" cx="431.97" cy="188.2" rx="16.04" ry="9.47" transform="translate(90.78 513.17) rotate(-67.15)"/><ellipse id="Ellipse_13-2" data-name="Ellipse 13" class="cls-1" cx="440.6" cy="210.5" rx="12.56" ry="7.41" transform="translate(-16.54 382.16) rotate(-46.12)"/><ellipse id="Ellipse_14-2" data-name="Ellipse 14" class="cls-1" cx="391.23" cy="194.65" rx="7.01" ry="11.89"/><path id="Path_213-3" data-name="Path 213" class="cls-1" d="M464.16,116.2c1.58-1.53,7.69-3.66,9.82-3,17.38,5.11,22.16,20.91,19.44,23.18-7.67,6.43-13.71-1.12-17.44-.14s-14.88,11.23-21.78,3.86C449.4,134.93,462.57,117.72,464.16,116.2Z"/><ellipse id="Ellipse_11-3" data-name="Ellipse 11" class="cls-1" cx="459.46" cy="97.37" rx="7.46" ry="12.65" transform="matrix(0.99, -0.1, 0.1, 0.99, -7.43, 46.39)"/><ellipse id="Ellipse_12-3" data-name="Ellipse 12" class="cls-1" cx="477.02" cy="95.38" rx="7.46" ry="12.65" transform="translate(-2.3 12.34) rotate(-1.48)"/><ellipse id="Ellipse_13-3" data-name="Ellipse 13" class="cls-1" cx="490.46" cy="108.6" rx="9.9" ry="5.85" transform="translate(223.99 534.44) rotate(-70.45)"/><ellipse id="Ellipse_14-3" data-name="Ellipse 14" class="cls-1" cx="449.84" cy="113.25" rx="5.53" ry="9.38" transform="translate(-6.67 195.6) rotate(-24.36)"/></svg>